<?xml version="1.0" encoding="UTF-8" standalone="no"?>
<svg
   xmlns:dc="http://purl.org/dc/elements/1.1/"
   xmlns:cc="http://creativecommons.org/ns#"
   xmlns:rdf="http://www.w3.org/1999/02/22-rdf-syntax-ns#"
   xmlns:svg="http://www.w3.org/2000/svg"
   xmlns="http://www.w3.org/2000/svg"
   viewBox="0 0 285.33334 69.333336"
   height="69.333336"
   width="285.33334"
   xml:space="preserve"
   id="svg2"
   version="1.1"><metadata
     id="metadata8"><rdf:RDF><cc:Work
         rdf:about=""><dc:format>image/svg+xml</dc:format><dc:type
           rdf:resource="http://purl.org/dc/dcmitype/StillImage" /></cc:Work></rdf:RDF></metadata><defs
     id="defs6" /><g
     transform="matrix(1.3333333,0,0,-1.3333333,0,69.333333)"
     id="g10"><g
       transform="scale(0.1)"
       id="g12"><path
         id="path14"
         style="fill:#ffffff;fill-opacity:1;fill-rule:nonzero;stroke:none"
         d="m 1970.52,132.09 h 43.11 v 106.172 c 0,29.211 17.45,46.672 42.4,46.672 25.65,0 40.26,-16.743 40.26,-45.961 V 132.09 h 43.1 v 119.711 c 0,43.82 -24.58,72.328 -66.98,72.328 -29.21,0 -46.67,-15.324 -58.78,-33.137 v 29.211 h -43.11 z M 665.109,127.816 c 46.668,0 75.172,17.102 101.18,44.18 l -28.144,28.5 c -21.375,-19.949 -40.973,-32.422 -71.618,-32.422 -47.738,0 -82.297,39.903 -82.297,88.715 v 0.711 c 0,48.813 34.559,88.004 82.297,88.004 28.504,0 49.883,-12.473 69.832,-30.996 l 28.149,32.418 c -23.871,22.801 -51.66,38.836 -97.621,38.836 -75.528,0 -128.614,-58.074 -128.614,-128.973 v -0.715 c 0,-71.609 54.153,-128.258 126.836,-128.258 z m 199.516,0 c 58.074,0 100.824,44.532 100.824,97.973 v 0.715 c 0,53.797 -42.398,97.625 -100.113,97.625 -57.719,0 -100.473,-44.539 -100.473,-98.34 v -0.711 c 0,-53.441 42.403,-97.262 99.762,-97.262 z m 0.711,37.411 c -33.488,0 -57.359,27.789 -57.359,60.562 v 0.715 c 0,32.777 22.086,59.859 56.648,59.859 33.844,0 57.715,-27.437 57.715,-60.574 v -0.711 c 0,-32.422 -22.086,-59.851 -57.004,-59.851 z m 187.404,-37.051 c 29.21,0 46.67,15.316 58.78,33.133 V 132.09 h 43.11 v 188.113 h -43.11 V 214.031 c 0,-29.211 -17.46,-46.668 -42.39,-46.668 -25.66,0 -40.27,16.742 -40.27,45.961 V 320.203 H 985.758 V 200.496 c 0,-43.82 24.582,-72.32 66.982,-72.32 z m 127.55,3.914 h 43.1 v 106.172 c 0,29.211 17.46,46.672 42.4,46.672 25.65,0 40.26,-16.743 40.26,-45.961 V 132.09 h 43.11 v 119.711 c 0,43.82 -24.59,72.328 -66.98,72.328 -29.22,0 -46.68,-15.324 -58.79,-33.137 v 29.211 h -43.1 z m 262.57,-3.203 c 16.03,0 28.14,3.562 38.83,9.621 v 35.265 c -8.55,-4.273 -17.1,-6.41 -26.72,-6.41 -14.6,0 -23.16,6.774 -23.16,23.512 v 92.277 h 50.6 v 37.051 h -50.6 v 51.664 h -43.11 v -51.664 h -23.86 v -37.051 h 23.86 v -99.047 c 0,-41.324 22.45,-55.218 54.16,-55.218 z m 139.65,-1.071 c 34.56,0 59.14,13.895 76.95,35.274 l -25.29,22.441 c -14.97,-14.601 -29.93,-22.441 -50.95,-22.441 -27.79,0 -49.52,17.101 -54.15,47.738 h 138.23 c 0.36,4.277 0.71,8.195 0.71,12.113 0,54.153 -30.28,101.188 -90.14,101.188 -53.79,0 -91.91,-44.184 -91.91,-97.981 v -0.71 c 0,-58.075 42.04,-97.622 96.55,-97.622 z m -53.8,111.516 c 3.92,29.211 22.44,49.52 48.81,49.52 28.5,0 44.89,-21.731 47.74,-49.52 z m 238.82,-111.156 c 30.63,0 50.23,15.672 64.13,35.269 V 132.09 h 43.11 v 260.082 h -43.11 v -101.18 c -13.54,17.457 -33.14,33.137 -64.13,33.137 -44.9,0 -87.29,-35.277 -87.29,-97.625 v -0.715 c 0,-62.344 43.11,-97.613 87.29,-97.613 z m 10.33,37.406 c -29.22,0 -54.16,23.867 -54.16,60.207 v 0.715 c 0,37.41 24.59,60.207 54.16,60.207 28.85,0 54.51,-23.867 54.51,-60.207 v -0.715 c 0,-35.98 -25.66,-60.207 -54.51,-60.207 z m 124.61,-33.492 h 43.82 v 260.082 h -43.82 V 132.09" /><path
         id="path16"
         style="fill:#ffffff;fill-opacity:1;fill-rule:evenodd;stroke:none"
         d="m 252.379,511.73 5.953,0.075 c 45.484,0 87.875,-13.266 123.504,-36.145 C 445.219,434.957 487.215,363.84 487.215,282.918 487.215,156.512 384.742,54.0352 258.332,54.0352 V 8.26172 C 256.355,8.21484 254.371,8.1875 252.379,8.1875 113.906,8.1875 0.609375,121.484 0.609375,259.961 0.609375,398.434 113.906,511.73 252.379,511.73 Z m 51.746,-228.812 c 0,-25.289 -20.504,-45.793 -45.793,-45.793 -25.289,0 -45.797,20.504 -45.797,45.793 0,25.297 20.508,45.797 45.797,45.797 25.289,0 45.793,-20.5 45.793,-45.797 z m -137.363,0 c 0,-50.566 41,-91.566 91.57,-91.566 25.289,0 48.188,10.257 64.758,26.832 l 32.371,-32.368 c -24.859,-24.855 -59.199,-40.238 -97.129,-40.238 -75.855,0 -137.348,61.492 -137.348,137.34 0,75.855 61.493,137.344 137.348,137.344 37.93,0 72.27,-15.383 97.129,-40.231 L 323.09,347.656 c -16.57,16.574 -39.469,26.836 -64.758,26.836 -50.57,0 -91.57,-41 -91.57,-91.574" /></g></g></svg>