<?xml version="1.0" encoding="UTF-8" standalone="no"?>
<svg
   xmlns:dc="http://purl.org/dc/elements/1.1/"
   xmlns:cc="http://creativecommons.org/ns#"
   xmlns:rdf="http://www.w3.org/1999/02/22-rdf-syntax-ns#"
   xmlns:svg="http://www.w3.org/2000/svg"
   xmlns="http://www.w3.org/2000/svg"
   viewBox="0 0 285.33334 69.333336"
   height="69.333336"
   width="285.33334"
   xml:space="preserve"
   id="svg2"
   version="1.1"><metadata
     id="metadata8"><rdf:RDF><cc:Work
         rdf:about=""><dc:format>image/svg+xml</dc:format><dc:type
           rdf:resource="http://purl.org/dc/dcmitype/StillImage" /></cc:Work></rdf:RDF></metadata><defs
     id="defs6" /><g
     transform="matrix(1.3333333,0,0,-1.3333333,0,69.333333)"
     id="g10"><g
       transform="scale(0.1)"
       id="g12"><path
         id="path14"
         style="fill:#9bcb3b;fill-opacity:1;fill-rule:nonzero;stroke:none"
         d="m 1970.52,132.094 h 43.11 v 106.172 c 0,29.211 17.45,46.668 42.4,46.668 25.65,0 40.26,-16.739 40.26,-45.957 V 132.094 h 43.1 v 119.711 c 0,43.82 -24.58,72.324 -66.98,72.324 -29.21,0 -46.67,-15.32 -58.78,-33.137 v 29.215 h -43.11 z M 665.109,127.82 c 46.668,0 75.172,17.102 101.18,44.18 l -28.144,28.5 c -21.375,-19.949 -40.973,-32.422 -71.618,-32.422 -47.738,0 -82.297,39.902 -82.297,88.711 v 0.715 c 0,48.809 34.559,88.004 82.297,88.004 28.504,0 49.883,-12.473 69.832,-31 l 28.149,32.422 c -23.871,22.8 -51.66,38.836 -97.621,38.836 -75.528,0 -128.614,-58.075 -128.614,-128.977 v -0.711 c 0,-71.609 54.153,-128.258 126.836,-128.258 z m 199.516,0 c 58.074,0 100.824,44.532 100.824,97.973 v 0.715 c 0,53.797 -42.398,97.621 -100.113,97.621 -57.719,0 -100.473,-44.535 -100.473,-98.336 v -0.711 c 0,-53.441 42.403,-97.262 99.762,-97.262 z m 0.711,37.407 c -33.488,0 -57.359,27.793 -57.359,60.566 v 0.715 c 0,32.777 22.086,59.855 56.648,59.855 33.844,0 57.715,-27.437 57.715,-60.57 v -0.711 c 0,-32.422 -22.086,-59.855 -57.004,-59.855 z m 187.404,-37.051 c 29.21,0 46.67,15.32 58.78,33.137 v -29.219 h 43.11 v 188.113 h -43.11 V 214.035 c 0,-29.211 -17.46,-46.668 -42.39,-46.668 -25.66,0 -40.27,16.742 -40.27,45.961 V 320.207 H 985.758 V 200.5 c 0,-43.82 24.582,-72.324 66.982,-72.324 z m 127.55,3.918 h 43.1 v 106.172 c 0,29.211 17.46,46.668 42.4,46.668 25.65,0 40.26,-16.739 40.26,-45.957 V 132.094 h 43.11 v 119.711 c 0,43.82 -24.59,72.324 -66.98,72.324 -29.22,0 -46.68,-15.32 -58.79,-33.137 v 29.215 h -43.1 z m 262.57,-3.207 c 16.03,0 28.14,3.566 38.83,9.621 v 35.269 c -8.55,-4.273 -17.1,-6.41 -26.72,-6.41 -14.6,0 -23.16,6.77 -23.16,23.512 v 92.277 h 50.6 v 37.051 h -50.6 v 51.66 h -43.11 v -51.66 h -23.86 v -37.051 h 23.86 v -99.047 c 0,-41.324 22.45,-55.222 54.16,-55.222 z m 139.65,-1.067 c 34.56,0 59.14,13.895 76.95,35.27 l -25.29,22.445 c -14.97,-14.601 -29.93,-22.445 -50.95,-22.445 -27.79,0 -49.52,17.101 -54.15,47.738 h 138.23 c 0.36,4.277 0.71,8.199 0.71,12.117 0,54.153 -30.28,101.184 -90.14,101.184 -53.79,0 -91.91,-44.18 -91.91,-97.977 v -0.714 c 0,-58.071 42.04,-97.618 96.55,-97.618 z m -53.8,111.516 c 3.92,29.211 22.44,49.516 48.81,49.516 28.5,0 44.89,-21.727 47.74,-49.516 z m 238.82,-111.16 c 30.63,0 50.23,15.676 64.13,35.273 v -31.355 h 43.11 v 260.082 h -43.11 V 290.992 c -13.54,17.461 -33.14,33.137 -64.13,33.137 -44.9,0 -87.29,-35.277 -87.29,-97.621 v -0.715 c 0,-62.344 43.11,-97.617 87.29,-97.617 z m 10.33,37.41 c -29.22,0 -54.16,23.867 -54.16,60.207 v 0.715 c 0,37.41 24.59,60.207 54.16,60.207 28.85,0 54.51,-23.867 54.51,-60.207 v -0.715 c 0,-35.984 -25.66,-60.207 -54.51,-60.207 z m 124.61,-33.492 h 43.82 v 260.082 h -43.82 V 132.094" /><path
         id="path16"
         style="fill:#9bcb3b;fill-opacity:1;fill-rule:evenodd;stroke:none"
         d="m 252.379,511.734 5.953,0.075 c 45.484,0 87.875,-13.27 123.504,-36.149 C 445.219,434.961 487.215,363.844 487.215,282.922 487.215,156.516 384.742,54.0352 258.332,54.0352 V 8.26172 C 256.355,8.21875 254.371,8.19141 252.379,8.19141 113.906,8.19141 0.609375,121.488 0.609375,259.961 0.609375,398.438 113.906,511.734 252.379,511.734 Z m 51.746,-228.812 c 0,-25.289 -20.504,-45.797 -45.793,-45.797 -25.289,0 -45.797,20.508 -45.797,45.797 0,25.293 20.508,45.797 45.797,45.797 25.289,0 45.793,-20.504 45.793,-45.797 z m -137.363,0 c 0,-50.57 41,-91.57 91.57,-91.57 25.289,0 48.188,10.257 64.758,26.832 l 32.371,-32.364 c -24.859,-24.859 -59.199,-40.238 -97.129,-40.238 -75.855,0 -137.348,61.492 -137.348,137.34 0,75.851 61.493,137.344 137.348,137.344 37.93,0 72.27,-15.383 97.129,-40.235 L 323.09,347.66 c -16.57,16.574 -39.469,26.836 -64.758,26.836 -50.57,0 -91.57,-41 -91.57,-91.574" /></g></g></svg>